<svg width="493" height="493" viewBox="0 0 493 493" fill="none" xmlns="http://www.w3.org/2000/svg">
<g filter="url(#filter0_d_14_48)">
<path d="M246.5 0C112.785 0 4 108.785 4 242.5C4 376.215 112.785 485 246.5 485C380.215 485 489 376.215 489 242.5C489 108.785 380.215 0 246.5 0ZM246.5 440.909C137.097 440.909 48.0909 351.903 48.0909 242.5C48.0909 133.097 137.097 44.0909 246.5 44.0909C355.903 44.0909 444.909 133.097 444.909 242.5C444.909 351.903 355.903 440.909 246.5 440.909Z" fill="white"/>
</g>
<path fill-rule="evenodd" clip-rule="evenodd" d="M162.915 159.168C164.784 157.304 167.317 156.257 169.958 156.257C172.599 156.257 175.133 157.304 177.001 159.168L246.371 228.434L315.741 159.168C316.654 158.19 317.754 157.405 318.977 156.862C320.199 156.318 321.519 156.025 322.857 156.002C324.196 155.978 325.525 156.224 326.766 156.724C328.007 157.225 329.134 157.97 330.081 158.915C331.027 159.86 331.773 160.986 332.275 162.225C332.776 163.464 333.022 164.791 332.998 166.128C332.975 167.464 332.682 168.782 332.137 170.003C331.592 171.223 330.807 172.322 329.828 173.233L260.458 242.5L329.828 311.767C330.807 312.678 331.592 313.777 332.137 314.997C332.682 316.218 332.975 317.536 332.998 318.872C333.022 320.209 332.776 321.536 332.275 322.775C331.773 324.014 331.027 325.14 330.081 326.085C329.134 327.03 328.007 327.775 326.766 328.276C325.525 328.776 324.196 329.022 322.857 328.998C321.519 328.975 320.199 328.682 318.977 328.138C317.754 327.595 316.654 326.81 315.741 325.832L246.371 256.566L177.001 325.832C175.112 327.59 172.613 328.547 170.031 328.502C167.449 328.456 164.985 327.412 163.159 325.589C161.333 323.765 160.287 321.305 160.241 318.727C160.196 316.149 161.154 313.653 162.915 311.767L232.285 242.5L162.915 173.233C161.048 171.367 160 168.838 160 166.2C160 163.563 161.048 161.034 162.915 159.168Z" fill="white"/>
<defs>
<filter id="filter0_d_14_48" x="0" y="0" width="493" height="493" filterUnits="userSpaceOnUse" color-interpolation-filters="sRGB">
<feFlood flood-opacity="0" result="BackgroundImageFix"/>
<feColorMatrix in="SourceAlpha" type="matrix" values="0 0 0 0 0 0 0 0 0 0 0 0 0 0 0 0 0 0 127 0" result="hardAlpha"/>
<feOffset dy="4"/>
<feGaussianBlur stdDeviation="2"/>
<feComposite in2="hardAlpha" operator="out"/>
<feColorMatrix type="matrix" values="0 0 0 0 0 0 0 0 0 0 0 0 0 0 0 0 0 0 0.25 0"/>
<feBlend mode="normal" in2="BackgroundImageFix" result="effect1_dropShadow_14_48"/>
<feBlend mode="normal" in="SourceGraphic" in2="effect1_dropShadow_14_48" result="shape"/>
</filter>
</defs>
</svg>
