<svg width="576" height="449" viewBox="0 0 576 449" fill="none" xmlns="http://www.w3.org/2000/svg">
<path d="M301.1 2.78086C312.6 7.98086 320 19.3809 320 31.9809V415.981C320 428.581 312.6 439.981 301.1 445.181C289.6 450.381 276.1 448.281 266.7 439.881L131.8 319.981H64C28.7 319.981 0 291.281 0 255.981V191.981C0 156.681 28.7 127.981 64 127.981H131.8L266.7 8.08086C276.1 -0.319142 289.6 -2.31914 301.1 2.78086V2.78086ZM425 134.981L480 189.981L535 134.981C544.4 125.581 559.6 125.581 568.9 134.981C578.2 144.381 578.3 159.581 568.9 168.881L513.9 223.881L568.9 278.881C578.3 288.281 578.3 303.481 568.9 312.781C559.5 322.081 544.3 322.181 535 312.781L480 257.781L425 312.781C415.6 322.181 400.4 322.181 391.1 312.781C381.8 303.381 381.7 288.181 391.1 278.881L446.1 223.881L391.1 168.881C381.7 159.481 381.7 144.281 391.1 134.981C400.5 125.681 415.7 125.581 425 134.981V134.981Z" fill="#F2F2F2"/>
</svg>
