<svg width="485" height="485" viewBox="0 0 485 485" fill="none" xmlns="http://www.w3.org/2000/svg">
<path d="M242.5 0C108.785 0 0 108.785 0 242.5C0 376.215 108.785 485 242.5 485C376.215 485 485 376.215 485 242.5C485 108.785 376.215 0 242.5 0ZM242.5 440.909C133.097 440.909 44.0909 351.903 44.0909 242.5C44.0909 133.097 133.097 44.0909 242.5 44.0909C351.903 44.0909 440.909 133.097 440.909 242.5C440.909 351.903 351.903 440.909 242.5 440.909Z" fill="white"/>
<path d="M285.489 121.25C273.314 121.25 263.443 131.12 263.443 143.295V341.705C263.443 353.88 273.314 363.75 285.489 363.75C297.664 363.75 307.534 353.88 307.534 341.705V143.295C307.534 131.12 297.664 121.25 285.489 121.25Z" fill="white"/>
<path d="M199.511 121.25C187.336 121.25 177.466 131.12 177.466 143.295V341.705C177.466 353.88 187.336 363.75 199.511 363.75C211.686 363.75 221.557 353.88 221.557 341.705V143.295C221.557 131.12 211.686 121.25 199.511 121.25Z" fill="white"/>
</svg>
