<svg width="640" height="458" viewBox="0 0 640 458" fill="none" xmlns="http://www.w3.org/2000/svg">
<path d="M533.6 5.4507C598.5 58.2507 640 138.751 640 228.951C640 319.151 598.5 399.751 533.6 452.451C523.3 460.851 508.2 459.251 499.8 448.951C491.4 438.651 493 423.551 503.3 415.151C557.5 371.151 592 304.151 592 228.951C592 153.751 557.5 86.7507 503.3 42.6507C493 34.2507 491.5 19.1507 499.8 8.85071C508.1 -1.44929 523.3 -2.94929 533.6 5.35071V5.4507ZM473.1 79.9507C516.3 115.151 544 168.851 544 228.951C544 289.051 516.3 342.751 473.1 377.951C462.8 386.351 447.7 384.751 439.3 374.451C430.9 364.151 432.5 349.051 442.8 340.651C475.3 314.251 496 274.051 496 228.951C496 183.851 475.3 143.651 442.8 117.151C432.5 108.751 431 93.6507 439.3 83.3507C447.6 73.0507 462.8 71.5507 473.1 79.8507V79.9507ZM412.6 154.451C434.1 172.051 448 198.851 448 228.951C448 259.051 434.1 285.851 412.6 303.451C402.3 311.851 387.2 310.251 378.8 299.951C370.4 289.651 372 274.551 382.3 266.151C393.1 257.351 400 243.951 400 228.951C400 213.951 393.1 200.551 382.3 191.651C372 183.251 370.5 168.151 378.8 157.851C387.1 147.551 402.3 146.051 412.6 154.351V154.451ZM301.1 7.7507C312.6 12.9507 320 24.3507 320 36.9507V420.951C320 433.551 312.6 444.951 301.1 450.151C289.6 455.351 276.1 453.251 266.7 444.851L131.8 324.951H64C28.7 324.951 0 296.251 0 260.951V196.951C0 161.651 28.7 132.951 64 132.951H131.8L266.7 13.0507C276.1 4.6507 289.6 2.6507 301.1 7.7507V7.7507Z" fill="#F2F2F2"/>
</svg>
